<mxfile host="app.diagrams.net" modified="2021-08-04T07:59:41.405Z" agent="5.0 (Windows)" etag="itbopQYlohlBQxWjYmJc" version="14.9.4" type="github">
  <diagram id="ihwpi3PG6v21Ac_dPdbL" name="Page-1">
    <mxGraphModel dx="910" dy="418" grid="1" gridSize="10" guides="1" tooltips="1" connect="1" arrows="1" fold="1" page="1" pageScale="1" pageWidth="850" pageHeight="1100" math="0" shadow="0">
      <root>
        <mxCell id="0" />
        <mxCell id="1" parent="0" />
        <mxCell id="TboBpPdybJenlptqnbeH-1" value="LCT Application" style="whiteSpace=wrap;html=1;aspect=fixed;" vertex="1" parent="1">
          <mxGeometry x="150" y="140" width="80" height="80" as="geometry" />
        </mxCell>
        <mxCell id="TboBpPdybJenlptqnbeH-3" value="UTCL Employees" style="shape=umlActor;verticalLabelPosition=bottom;verticalAlign=top;html=1;outlineConnect=0;" vertex="1" parent="1">
          <mxGeometry x="40" y="150" width="30" height="60" as="geometry" />
        </mxCell>
        <mxCell id="TboBpPdybJenlptqnbeH-4" value="" style="endArrow=classic;html=1;" edge="1" parent="1" source="TboBpPdybJenlptqnbeH-3">
          <mxGeometry width="50" height="50" relative="1" as="geometry">
            <mxPoint x="60" y="150" as="sourcePoint" />
            <mxPoint x="150" y="180" as="targetPoint" />
          </mxGeometry>
        </mxCell>
        <mxCell id="TboBpPdybJenlptqnbeH-5" value="Sign-in" style="text;html=1;strokeColor=none;fillColor=none;align=center;verticalAlign=middle;whiteSpace=wrap;rounded=0;" vertex="1" parent="1">
          <mxGeometry x="90" y="160" width="40" height="20" as="geometry" />
        </mxCell>
        <mxCell id="TboBpPdybJenlptqnbeH-6" value="Real Time Data" style="ellipse;whiteSpace=wrap;html=1;" vertex="1" parent="1">
          <mxGeometry x="700" y="165" width="120" height="50" as="geometry" />
        </mxCell>
        <mxCell id="TboBpPdybJenlptqnbeH-7" value="" style="endArrow=classic;html=1;entryX=0;entryY=0.5;entryDx=0;entryDy=0;" edge="1" parent="1" target="TboBpPdybJenlptqnbeH-24">
          <mxGeometry width="50" height="50" relative="1" as="geometry">
            <mxPoint x="231.03" y="180" as="sourcePoint" />
            <mxPoint x="305" y="269" as="targetPoint" />
          </mxGeometry>
        </mxCell>
        <mxCell id="TboBpPdybJenlptqnbeH-11" value="Trend Analysis" style="ellipse;shape=cloud;whiteSpace=wrap;html=1;" vertex="1" parent="1">
          <mxGeometry x="730" y="20" width="120" height="80" as="geometry" />
        </mxCell>
        <mxCell id="TboBpPdybJenlptqnbeH-16" value="" style="endArrow=none;dashed=1;html=1;dashPattern=1 3;strokeWidth=2;" edge="1" parent="1">
          <mxGeometry width="50" height="50" relative="1" as="geometry">
            <mxPoint x="790" y="96" as="sourcePoint" />
            <mxPoint x="790" y="165" as="targetPoint" />
          </mxGeometry>
        </mxCell>
        <mxCell id="TboBpPdybJenlptqnbeH-22" value="Querying" style="text;html=1;strokeColor=none;fillColor=none;align=center;verticalAlign=middle;whiteSpace=wrap;rounded=0;" vertex="1" parent="1">
          <mxGeometry x="520" y="210" width="40" height="20" as="geometry" />
        </mxCell>
        <mxCell id="TboBpPdybJenlptqnbeH-24" value="Based on Role" style="rhombus;whiteSpace=wrap;html=1;" vertex="1" parent="1">
          <mxGeometry x="315" y="140" width="80" height="80" as="geometry" />
        </mxCell>
        <mxCell id="TboBpPdybJenlptqnbeH-26" value="Logistics" style="ellipse;whiteSpace=wrap;html=1;aspect=fixed;" vertex="1" parent="1">
          <mxGeometry x="425" y="90" width="80" height="80" as="geometry" />
        </mxCell>
        <mxCell id="TboBpPdybJenlptqnbeH-27" value="Non-Logistics" style="ellipse;whiteSpace=wrap;html=1;aspect=fixed;" vertex="1" parent="1">
          <mxGeometry x="425" y="200" width="80" height="80" as="geometry" />
        </mxCell>
        <mxCell id="TboBpPdybJenlptqnbeH-28" value="" style="endArrow=classic;html=1;entryX=0;entryY=1;entryDx=0;entryDy=0;" edge="1" parent="1" target="TboBpPdybJenlptqnbeH-26">
          <mxGeometry width="50" height="50" relative="1" as="geometry">
            <mxPoint x="395" y="180" as="sourcePoint" />
            <mxPoint x="445" y="130" as="targetPoint" />
          </mxGeometry>
        </mxCell>
        <mxCell id="TboBpPdybJenlptqnbeH-29" value="" style="endArrow=classic;html=1;" edge="1" parent="1">
          <mxGeometry width="50" height="50" relative="1" as="geometry">
            <mxPoint x="390" y="180" as="sourcePoint" />
            <mxPoint x="430" y="220" as="targetPoint" />
          </mxGeometry>
        </mxCell>
        <mxCell id="TboBpPdybJenlptqnbeH-30" value="MySQL" style="shape=hexagon;perimeter=hexagonPerimeter2;whiteSpace=wrap;html=1;fixedSize=1;" vertex="1" parent="1">
          <mxGeometry x="570" y="150" width="80" height="80" as="geometry" />
        </mxCell>
        <mxCell id="TboBpPdybJenlptqnbeH-31" value="" style="endArrow=classic;html=1;entryX=0;entryY=0.5;entryDx=0;entryDy=0;" edge="1" parent="1" target="TboBpPdybJenlptqnbeH-30">
          <mxGeometry width="50" height="50" relative="1" as="geometry">
            <mxPoint x="505" y="240" as="sourcePoint" />
            <mxPoint x="555" y="190" as="targetPoint" />
          </mxGeometry>
        </mxCell>
        <mxCell id="TboBpPdybJenlptqnbeH-32" value="" style="endArrow=classic;html=1;" edge="1" parent="1">
          <mxGeometry width="50" height="50" relative="1" as="geometry">
            <mxPoint x="505" y="140" as="sourcePoint" />
            <mxPoint x="570" y="190" as="targetPoint" />
            <Array as="points" />
          </mxGeometry>
        </mxCell>
        <mxCell id="TboBpPdybJenlptqnbeH-36" value="Querying" style="text;html=1;strokeColor=none;fillColor=none;align=center;verticalAlign=middle;whiteSpace=wrap;rounded=0;rotation=0;" vertex="1" parent="1">
          <mxGeometry x="530" y="150" width="30" height="20" as="geometry" />
        </mxCell>
        <mxCell id="TboBpPdybJenlptqnbeH-39" value="" style="endArrow=classic;html=1;entryX=0;entryY=0.5;entryDx=0;entryDy=0;exitX=1;exitY=0.5;exitDx=0;exitDy=0;" edge="1" parent="1" source="TboBpPdybJenlptqnbeH-30" target="TboBpPdybJenlptqnbeH-6">
          <mxGeometry width="50" height="50" relative="1" as="geometry">
            <mxPoint x="640" y="220" as="sourcePoint" />
            <mxPoint x="690" y="170" as="targetPoint" />
          </mxGeometry>
        </mxCell>
        <mxCell id="TboBpPdybJenlptqnbeH-40" value="Home Page" style="text;html=1;strokeColor=none;fillColor=none;align=center;verticalAlign=middle;whiteSpace=wrap;rounded=0;" vertex="1" parent="1">
          <mxGeometry x="430" y="170" width="80" height="20" as="geometry" />
        </mxCell>
        <mxCell id="TboBpPdybJenlptqnbeH-41" value="Home Page" style="text;html=1;strokeColor=none;fillColor=none;align=center;verticalAlign=middle;whiteSpace=wrap;rounded=0;" vertex="1" parent="1">
          <mxGeometry x="425" y="280" width="80" height="20" as="geometry" />
        </mxCell>
        <mxCell id="TboBpPdybJenlptqnbeH-42" value="Database" style="text;html=1;strokeColor=none;fillColor=none;align=center;verticalAlign=middle;whiteSpace=wrap;rounded=0;" vertex="1" parent="1">
          <mxGeometry x="570" y="240" width="80" height="20" as="geometry" />
        </mxCell>
        <mxCell id="TboBpPdybJenlptqnbeH-43" value="ETL Jobs" style="shape=parallelogram;perimeter=parallelogramPerimeter;whiteSpace=wrap;html=1;fixedSize=1;" vertex="1" parent="1">
          <mxGeometry x="570" y="40" width="120" height="60" as="geometry" />
        </mxCell>
        <mxCell id="TboBpPdybJenlptqnbeH-44" value="" style="endArrow=classic;html=1;exitX=0.433;exitY=1.067;exitDx=0;exitDy=0;exitPerimeter=0;" edge="1" parent="1" source="TboBpPdybJenlptqnbeH-43">
          <mxGeometry width="50" height="50" relative="1" as="geometry">
            <mxPoint x="560" y="200" as="sourcePoint" />
            <mxPoint x="610" y="150" as="targetPoint" />
          </mxGeometry>
        </mxCell>
        <mxCell id="TboBpPdybJenlptqnbeH-45" value="Data Collection" style="text;html=1;strokeColor=none;fillColor=none;align=center;verticalAlign=middle;whiteSpace=wrap;rounded=0;" vertex="1" parent="1">
          <mxGeometry x="580" y="120" width="100" height="20" as="geometry" />
        </mxCell>
        <mxCell id="TboBpPdybJenlptqnbeH-46" value="Output" style="text;html=1;strokeColor=none;fillColor=none;align=center;verticalAlign=middle;whiteSpace=wrap;rounded=0;" vertex="1" parent="1">
          <mxGeometry x="720" y="220" width="80" height="20" as="geometry" />
        </mxCell>
      </root>
    </mxGraphModel>
  </diagram>
</mxfile>
